# xmcd CD database file
#
# Track frame offsets:
#	150
#	18077
#	29855
#	57555
#	74541
#	89727
#	105479
#	123524
#	146753
#	162251
#	175875
#	188582
#	204321
#	236650
#	254833
#	274715
#	286240
#	301430
#
# Disc length: 4300 seconds
#
# Revision: 0
# Processed by: cddbd v1.5.2PL0 Copyright (c) Steve Scherf et al.
# Submitted via: CDex 1.70beta2
#
DISCID=1310ca12
DTITLE=Lime House Jazzband - Lime House Jazzband Volume 1
DYEAR=1900
DGENRE=Jazz
TTITLE0=Stevedore Stomp
TTITLE1=Hello Dolly
TTITLE2=Chimes Blues
TTITLE3=Thats my Home
TTITLE4=Coyote Blues
TTITLE5=Watermelon Man
TTITLE6=Savoy Blues
TTITLE7=Bei mir biste scheen
TTITLE8=Lazy River
TTITLE9=Midnight in Moscow
TTITLE10=Buona Sera
TTITLE11=Rent Party Blues
TTITLE12=All of me
TTITLE13=Summertime
TTITLE14=Doctor Jazz
TTITLE15=Beal Street Blues
TTITLE16=Alexanders Ragtime Band
TTITLE17=Avalon
EXTD=
EXTT0=
EXTT1=
EXTT2=
EXTT3=
EXTT4=
EXTT5=
EXTT6=
EXTT7=
EXTT8=
EXTT9=
EXTT10=
EXTT11=
EXTT12=
EXTT13=
EXTT14=
EXTT15=
EXTT16=
EXTT17=
PLAYORDER=
